# Blender v3.2.1 OBJ File: ''
# www.blender.org
mtllib dirt.mtl
o Cube
v 1.000000 0.058099 -1.000000
v 1.000000 -0.058099 -1.000000
v 1.000000 0.058099 1.000000
v 1.000000 -0.058099 1.000000
v -1.000000 0.058099 -1.000000
v -1.000000 -0.058099 -1.000000
v -1.000000 0.058099 1.000000
v -1.000000 -0.058099 1.000000
v -1.000000 -0.058099 -0.900741
v -1.000000 -0.058099 0.900741
v 1.000000 0.058099 -0.900741
v 1.000000 0.058099 0.900741
v -1.000000 0.058099 0.900741
v -1.000000 0.058099 -0.900741
v 1.000000 -0.058099 0.900741
v 1.000000 -0.058099 -0.900741
v 0.909469 -0.058099 -1.000000
v -0.909469 -0.058099 -1.000000
v 0.909469 0.058099 1.000000
v -0.909469 0.058099 1.000000
v -0.909469 -0.058099 1.000000
v 0.909469 -0.058099 1.000000
v -0.909469 0.058099 -1.000000
v 0.909469 0.058099 -1.000000
v 0.909469 -0.058099 -0.900741
v -0.909469 -0.058099 -0.900741
v 0.909469 -0.058099 0.900741
v -0.909469 -0.058099 0.900741
v -0.909469 0.058099 -0.900741
v 0.909469 0.058099 -0.900741
v -0.909469 0.058099 0.900741
v 0.909469 0.058099 0.900741
v -1.000000 -0.058099 -0.450370
v -1.000000 -0.058099 0.000000
v -1.000000 -0.058099 0.450370
v 1.000000 0.058099 -0.450370
v 1.000000 0.058099 0.000000
v 1.000000 0.058099 0.450370
v -1.000000 0.058099 0.450370
v -1.000000 0.058099 0.000000
v -1.000000 0.058099 -0.450370
v 1.000000 -0.058099 0.450370
v 1.000000 -0.058099 0.000000
v 1.000000 -0.058099 -0.450370
v 0.909469 0.117942 -0.450370
v 0.909469 0.082962 0.000000
v 0.909469 0.117942 0.450370
v -0.909469 0.117942 -0.450370
v -0.909469 0.082962 0.000000
v -0.909469 0.117942 0.450370
v -0.909469 -0.058099 -0.450370
v -0.909469 -0.058099 0.000000
v -0.909469 -0.058099 0.450370
v 0.909469 -0.058099 -0.450370
v 0.909469 -0.058099 0.000000
v 0.909469 -0.058099 0.450370
vt 0.524288 0.518126
vt 0.490281 0.513109
vt 0.490728 0.496949
vt 0.504650 0.487498
vt 0.484310 0.480219
vt 0.483559 0.490861
vt 0.087626 0.516139
vt 0.071958 0.531978
vt 0.066996 0.514834
vt 0.076408 0.511003
vt 0.466604 0.165431
vt 0.471380 0.150028
vt 0.482598 0.155163
vt 0.483521 0.168226
vt 0.487048 0.134189
vt 0.492010 0.151333
vt 0.074696 0.185947
vt 0.054356 0.178668
vt 0.068279 0.169217
vt 0.075447 0.175305
vt 0.068725 0.153057
vt 0.085858 0.167240
vt 0.385306 0.109957
vt 0.394094 0.080913
vt 0.092288 0.183025
vt 0.379902 0.130605
vt 0.473148 0.498926
vt 0.173700 0.556210
vt 0.164912 0.585254
vt 0.055620 0.506120
vt 0.034718 0.540830
vt 0.416790 0.602741
vt 0.404449 0.574350
vt 0.403736 0.050799
vt 0.524288 0.125337
vt 0.653968 0.909708
vt 0.991849 0.909708
vt 0.991849 0.994104
vt 0.653968 0.994104
vt 0.034718 0.148039
vt 0.392691 0.546688
vt 0.385338 0.526896
vt 0.466718 0.483141
vt 0.075485 0.497940
vt 0.092402 0.500735
vt 0.503386 0.160046
vt 0.173668 0.139270
vt 0.179105 0.535561
vt 0.275268 0.121115
vt 0.283739 0.545051
vt 0.284689 0.567291
vt 0.653968 0.657490
vt 0.991849 0.657490
vt 0.991849 0.741885
vt 0.653968 0.741885
vt 0.991849 0.825797
vt 0.653968 0.825797
vt 0.142217 0.063425
vt 0.154558 0.091816
vt 0.271699 0.041356
vt 0.272951 0.068194
vt 0.155270 0.615367
vt 0.286055 0.597973
vt 0.287308 0.624810
vt 0.166316 0.119478
vt 0.274318 0.098875
vn 0.0000 1.0000 0.0000
vn 0.0000 0.0000 1.0000
vn -1.0000 0.0000 0.0000
vn 0.0000 -1.0000 0.0000
vn 1.0000 0.0000 0.0000
vn 0.0000 0.0000 -1.0000
vn -0.3132 0.9476 0.0630
vn 0.3132 0.9476 0.0630
vn 0.0000 0.9913 0.1317
vn 0.0000 0.9913 -0.1317
vn 0.0000 0.9970 0.0774
vn 0.0000 0.9970 -0.0774
vn 0.3132 0.9476 -0.0630
vn 0.4235 0.9052 0.0352
vn 0.4235 0.9052 -0.0352
vn -0.3132 0.9476 -0.0630
vn -0.4235 0.9052 0.0352
vn -0.4235 0.9052 -0.0352
usemtl Material
s off
f 31/1/1 13/2/1 7/3/1 20/4/1
f 21/5/2 20/4/2 7/3/2 8/6/2
f 9/7/3 14/8/3 5/9/3 6/10/3
f 27/11/4 15/12/4 4/13/4 22/14/4
f 15/12/5 12/15/5 3/16/5 4/13/5
f 17/17/6 24/18/6 1/19/6 2/20/6
f 2/20/5 1/19/5 11/21/5 16/22/5
f 42/23/5 38/24/5 12/15/5 15/12/5
f 17/17/4 2/20/4 16/22/4 25/25/4
f 56/26/4 42/23/4 15/12/4 27/11/4
f 8/6/3 7/3/3 13/2/3 10/27/3
f 33/28/3 41/29/3 14/8/3 9/7/3
f 23/30/1 5/9/1 14/8/1 29/31/1
f 50/32/7 39/33/7 13/2/7 31/1/7
f 38/24/8 47/34/8 32/35/8 12/15/8
f 47/36/9 50/37/9 31/38/9 32/39/9
f 1/19/1 24/18/1 30/40/1 11/21/1
f 24/18/1 23/30/1 29/31/1 30/40/1
f 35/41/4 53/42/4 28/43/4 10/27/4
f 53/42/4 56/26/4 27/11/4 28/43/4
f 6/10/4 18/44/4 26/45/4 9/7/4
f 18/44/4 17/17/4 25/25/4 26/45/4
f 6/10/6 5/9/6 23/30/6 18/44/6
f 18/44/6 23/30/6 24/18/6 17/17/6
f 10/27/4 28/43/4 21/5/4 8/6/4
f 28/43/4 27/11/4 22/14/4 21/5/4
f 4/13/2 3/16/2 19/46/2 22/14/2
f 22/14/2 19/46/2 20/4/2 21/5/2
f 12/15/1 32/35/1 19/46/1 3/16/1
f 32/35/1 31/1/1 20/4/1 19/46/1
f 26/45/4 25/25/4 54/47/4 51/48/4
f 51/48/4 54/47/4 55/49/4 52/50/4
f 52/50/4 55/49/4 56/26/4 53/42/4
f 9/7/4 26/45/4 51/48/4 33/28/4
f 33/28/4 51/48/4 52/50/4 34/51/4
f 34/51/4 52/50/4 53/42/4 35/41/4
f 30/52/10 29/53/10 48/54/10 45/55/10
f 45/55/11 48/54/11 49/56/11 46/57/11
f 46/57/12 49/56/12 50/37/12 47/36/12
f 11/21/13 30/40/13 45/58/13 36/59/13
f 36/59/14 45/58/14 46/60/14 37/61/14
f 37/61/15 46/60/15 47/34/15 38/24/15
f 29/31/16 14/8/16 41/29/16 48/62/16
f 48/62/17 41/29/17 40/63/17 49/64/17
f 49/64/18 40/63/18 39/33/18 50/32/18
f 10/27/3 13/2/3 39/33/3 35/41/3
f 35/41/3 39/33/3 40/63/3 34/51/3
f 34/51/3 40/63/3 41/29/3 33/28/3
f 25/25/4 16/22/4 44/65/4 54/47/4
f 54/47/4 44/65/4 43/66/4 55/49/4
f 55/49/4 43/66/4 42/23/4 56/26/4
f 16/22/5 11/21/5 36/59/5 44/65/5
f 44/65/5 36/59/5 37/61/5 43/66/5
f 43/66/5 37/61/5 38/24/5 42/23/5
